<?xml version="1.0" encoding="UTF-8"?>
<svg xmlns="http://www.w3.org/2000/svg"
xmlns:xlink="http://www.w3.org/1999/xlink"
version="1.1" baseProfile="full"
width="1300" height="1600"
viewBox="-100 -1500 1300 1600">
<title>Graph</title>
<desc>Graph generated ob a set of numbers</desc>

<text x="50" y="50" font-size="50" text-anchor="middle" >1</text>
<text x="150" y="50" font-size="50" text-anchor="middle" >2</text>
<text x="250" y="50" font-size="50" text-anchor="middle" >3</text>
<text x="350" y="50" font-size="50" text-anchor="middle" >4</text>
<text x="450" y="50" font-size="50" text-anchor="middle" >5</text>
<text x="550" y="50" font-size="50" text-anchor="middle" >6</text>
<text x="650" y="50" font-size="50" text-anchor="middle" >7</text>
<text x="750" y="50" font-size="50" text-anchor="middle" >8</text>
<text x="850" y="50" font-size="50" text-anchor="middle" >9</text>
<text x="950" y="50" font-size="50" text-anchor="middle" >10</text>
<text x="1050" y="50" font-size="50" text-anchor="middle" >11</text>
<text x="-50" y="-35" font-size="50" text-anchor="middle" >1</text>
<text x="-50" y="-135" font-size="50" text-anchor="middle" >2</text>
<text x="-50" y="-235" font-size="50" text-anchor="middle" >3</text>
<text x="-50" y="-335" font-size="50" text-anchor="middle" >4</text>
<text x="-50" y="-435" font-size="50" text-anchor="middle" >5</text>
<text x="-50" y="-535" font-size="50" text-anchor="middle" >6</text>
<text x="-50" y="-635" font-size="50" text-anchor="middle" >7</text>
<text x="-50" y="-735" font-size="50" text-anchor="middle" >8</text>
<text x="-50" y="-835" font-size="50" text-anchor="middle" >9</text>
<text x="-50" y="-935" font-size="50" text-anchor="middle" >10</text>
<text x="-50" y="-1035" font-size="50" text-anchor="middle" >11</text>
<text x="-50" y="-1135" font-size="50" text-anchor="middle" >12</text>
<text x="-50" y="-1235" font-size="50" text-anchor="middle" >13</text>
<text x="-50" y="-1335" font-size="50" text-anchor="middle" >14</text>
<rect x="10" y="-500" width="80" height="500" stroke="black" stroke-width="0" fill="blue" />
<rect x="110" y="-900" width="80" height="900" stroke="black" stroke-width="0" fill="blue" />
<rect x="210" y="-700" width="80" height="700" stroke="black" stroke-width="0" fill="blue" />
<rect x="310" y="-200" width="80" height="200" stroke="black" stroke-width="0" fill="blue" />
<rect x="410" y="-1300" width="80" height="1300" stroke="black" stroke-width="0" fill="blue" />
<rect x="510" y="-1400" width="80" height="1400" stroke="black" stroke-width="0" fill="blue" />
<rect x="610" y="-600" width="80" height="600" stroke="black" stroke-width="0" fill="blue" />
<rect x="710" y="-400" width="80" height="400" stroke="black" stroke-width="0" fill="blue" />
<rect x="810" y="-800" width="80" height="800" stroke="black" stroke-width="0" fill="blue" />
<rect x="910" y="-700" width="80" height="700" stroke="black" stroke-width="0" fill="blue" />
<rect x="1010" y="-1000" width="80" height="1000" stroke="black" stroke-width="0" fill="blue" />

</svg>